<svg width="136" height="151" viewBox="0 0 136 151" fill="none" xmlns="http://www.w3.org/2000/svg">
<path d="M46 76V126H96L121 151H21V51L46 76Z" fill="black"/>
<path d="M71 0C85.4036 0 98.3821 6.09284 107.506 15.8389L89.8105 34.1445C85.3287 27.4264 77.6818 23 69 23C55.1929 23 44 34.1929 44 48C44 61.8071 55.1929 73 69 73C76.4202 73 83.0835 69.7657 87.6621 64.6318L107.028 84.665C97.932 94.1168 85.1539 100 71 100C43.3858 100 21 77.6142 21 50C21 22.3858 43.3858 0 71 0Z" fill="black"/>
<rect y="51" width="13" height="100" fill="#2C7E34"/>
<path d="M37.6611 2.53516C23.8673 12.2416 14.4942 27.8073 13.1631 45.6152C13.0562 46.7291 13 47.8581 13 49C13 49.1115 13.0029 49.2228 13.0039 49.334C13.0014 49.5557 13 49.7777 13 50C13 50.334 13.0041 50.6673 13.0098 51H0C0 27.6441 16.0142 8.02954 37.6611 2.53516Z" fill="#2C7E34"/>
<path d="M86.0212 52.5871C84.8946 51.4237 84.8946 49.5763 86.0212 48.4129L117.845 15.5527C119.721 13.6161 123 14.9439 123 17.6398L123 83.3602C123 86.0561 119.721 87.3839 117.845 85.4473L86.0212 52.5871Z" fill="#2C7E34"/>
</svg>
